<mxfile host="app.diagrams.net" modified="2024-05-18T01:08:51.594Z" agent="Mozilla/5.0 (Macintosh; Intel Mac OS X 10_15_7) AppleWebKit/605.1.15 (KHTML, like Gecko) Version/17.1 Safari/605.1.15" version="24.4.4" etag="H6kS1_tTyPqf9FOfLazF" type="github">
  <diagram name="Page-1" id="8Uc_AyU57xLiHgKcE0Tf">
    <mxGraphModel>
      <root>
        <mxCell id="0" />
        <mxCell id="1" parent="0" />
      </root>
    </mxGraphModel>
  </diagram>
</mxfile>
